<mxfile host="65bd71144e">
    <diagram id="C5RBs43oDa-KdzZeNtuy" name="Page-1">
        <mxGraphModel dx="195" dy="449" grid="1" gridSize="10" guides="1" tooltips="1" connect="1" arrows="1" fold="1" page="1" pageScale="1" pageWidth="827" pageHeight="1169" math="0" shadow="0">
            <root>
                <mxCell id="WIyWlLk6GJQsqaUBKTNV-0"/>
                <mxCell id="WIyWlLk6GJQsqaUBKTNV-1" parent="WIyWlLk6GJQsqaUBKTNV-0"/>
                <mxCell id="CVenbKpaEEO6EF5ZuUXy-3" value="" style="edgeStyle=orthogonalEdgeStyle;rounded=0;orthogonalLoop=1;jettySize=auto;html=1;" parent="WIyWlLk6GJQsqaUBKTNV-1" source="WIyWlLk6GJQsqaUBKTNV-3" target="CVenbKpaEEO6EF5ZuUXy-2" edge="1">
                    <mxGeometry relative="1" as="geometry"/>
                </mxCell>
                <mxCell id="WIyWlLk6GJQsqaUBKTNV-3" value="Find and click 'Fishing' button" style="rounded=1;whiteSpace=wrap;html=1;fontSize=12;glass=0;strokeWidth=1;shadow=0;" parent="WIyWlLk6GJQsqaUBKTNV-1" vertex="1">
                    <mxGeometry x="160" y="130" width="120" height="40" as="geometry"/>
                </mxCell>
                <mxCell id="CVenbKpaEEO6EF5ZuUXy-14" style="edgeStyle=orthogonalEdgeStyle;rounded=0;orthogonalLoop=1;jettySize=auto;html=1;entryX=0.5;entryY=0;entryDx=0;entryDy=0;fontSize=14;" parent="WIyWlLk6GJQsqaUBKTNV-1" source="WIyWlLk6GJQsqaUBKTNV-11" target="CVenbKpaEEO6EF5ZuUXy-16" edge="1">
                    <mxGeometry relative="1" as="geometry">
                        <mxPoint x="220" y="510" as="targetPoint"/>
                    </mxGeometry>
                </mxCell>
                <mxCell id="WIyWlLk6GJQsqaUBKTNV-11" value="Click 'Cast' button after random 0-1 seconds" style="rounded=1;whiteSpace=wrap;html=1;fontSize=12;glass=0;strokeWidth=1;shadow=0;" parent="WIyWlLk6GJQsqaUBKTNV-1" vertex="1">
                    <mxGeometry x="150" y="430" width="140" height="40" as="geometry"/>
                </mxCell>
                <mxCell id="CVenbKpaEEO6EF5ZuUXy-1" value="" style="edgeStyle=orthogonalEdgeStyle;rounded=0;orthogonalLoop=1;jettySize=auto;html=1;" parent="WIyWlLk6GJQsqaUBKTNV-1" source="CVenbKpaEEO6EF5ZuUXy-0" target="WIyWlLk6GJQsqaUBKTNV-3" edge="1">
                    <mxGeometry relative="1" as="geometry"/>
                </mxCell>
                <mxCell id="CVenbKpaEEO6EF5ZuUXy-0" value="Start" style="ellipse;whiteSpace=wrap;html=1;" parent="WIyWlLk6GJQsqaUBKTNV-1" vertex="1">
                    <mxGeometry x="190" y="40" width="60" height="50" as="geometry"/>
                </mxCell>
                <mxCell id="CVenbKpaEEO6EF5ZuUXy-8" style="edgeStyle=orthogonalEdgeStyle;rounded=0;orthogonalLoop=1;jettySize=auto;html=1;entryX=0.5;entryY=0;entryDx=0;entryDy=0;fontSize=16;exitX=1;exitY=0.5;exitDx=0;exitDy=0;" parent="WIyWlLk6GJQsqaUBKTNV-1" source="CVenbKpaEEO6EF5ZuUXy-2" target="1" edge="1">
                    <mxGeometry relative="1" as="geometry"/>
                </mxCell>
                <mxCell id="CVenbKpaEEO6EF5ZuUXy-2" value="Find and click 'Play' button" style="rounded=1;whiteSpace=wrap;html=1;fontSize=12;glass=0;strokeWidth=1;shadow=0;" parent="WIyWlLk6GJQsqaUBKTNV-1" vertex="1">
                    <mxGeometry x="170" y="200" width="100" height="40" as="geometry"/>
                </mxCell>
                <mxCell id="CVenbKpaEEO6EF5ZuUXy-6" style="edgeStyle=orthogonalEdgeStyle;rounded=0;orthogonalLoop=1;jettySize=auto;html=1;entryX=0.5;entryY=0;entryDx=0;entryDy=0;" parent="WIyWlLk6GJQsqaUBKTNV-1" source="CVenbKpaEEO6EF5ZuUXy-4" target="CVenbKpaEEO6EF5ZuUXy-5" edge="1">
                    <mxGeometry relative="1" as="geometry"/>
                </mxCell>
                <mxCell id="CVenbKpaEEO6EF5ZuUXy-7" value="Yes" style="edgeLabel;html=1;align=center;verticalAlign=middle;resizable=0;points=[];fontSize=14;" parent="CVenbKpaEEO6EF5ZuUXy-6" vertex="1" connectable="0">
                    <mxGeometry x="-0.4383" y="-1" relative="1" as="geometry">
                        <mxPoint x="3" y="-1" as="offset"/>
                    </mxGeometry>
                </mxCell>
                <mxCell id="0" value="No" style="edgeStyle=none;html=1;entryX=1;entryY=0.5;entryDx=0;entryDy=0;" edge="1" parent="WIyWlLk6GJQsqaUBKTNV-1" source="CVenbKpaEEO6EF5ZuUXy-4" target="1">
                    <mxGeometry relative="1" as="geometry">
                        <mxPoint x="280" y="345" as="targetPoint"/>
                    </mxGeometry>
                </mxCell>
                <mxCell id="CVenbKpaEEO6EF5ZuUXy-4" value="Is 'empty bait slot' available" style="rhombus;whiteSpace=wrap;html=1;shadow=0;fontFamily=Helvetica;fontSize=12;align=center;strokeWidth=1;spacing=6;spacingTop=-4;" parent="WIyWlLk6GJQsqaUBKTNV-1" vertex="1">
                    <mxGeometry x="340" y="290" width="120" height="110" as="geometry"/>
                </mxCell>
                <mxCell id="CVenbKpaEEO6EF5ZuUXy-5" value="End" style="ellipse;whiteSpace=wrap;html=1;" parent="WIyWlLk6GJQsqaUBKTNV-1" vertex="1">
                    <mxGeometry x="535" y="380" width="60" height="50" as="geometry"/>
                </mxCell>
                <mxCell id="CVenbKpaEEO6EF5ZuUXy-21" style="edgeStyle=orthogonalEdgeStyle;rounded=0;orthogonalLoop=1;jettySize=auto;html=1;entryX=0;entryY=0.5;entryDx=0;entryDy=0;fontSize=14;" parent="WIyWlLk6GJQsqaUBKTNV-1" source="CVenbKpaEEO6EF5ZuUXy-16" target="CVenbKpaEEO6EF5ZuUXy-22" edge="1">
                    <mxGeometry relative="1" as="geometry">
                        <mxPoint x="450" y="670" as="targetPoint"/>
                    </mxGeometry>
                </mxCell>
                <mxCell id="CVenbKpaEEO6EF5ZuUXy-16" value="Is '100%' available" style="rhombus;whiteSpace=wrap;html=1;shadow=0;fontFamily=Helvetica;fontSize=12;align=center;strokeWidth=1;spacing=6;spacingTop=-4;" parent="WIyWlLk6GJQsqaUBKTNV-1" vertex="1">
                    <mxGeometry x="160" y="660" width="120" height="110" as="geometry"/>
                </mxCell>
                <mxCell id="CVenbKpaEEO6EF5ZuUXy-24" style="edgeStyle=orthogonalEdgeStyle;rounded=0;orthogonalLoop=1;jettySize=auto;html=1;entryX=0.5;entryY=1;entryDx=0;entryDy=0;fontSize=14;" parent="WIyWlLk6GJQsqaUBKTNV-1" source="CVenbKpaEEO6EF5ZuUXy-22" target="CVenbKpaEEO6EF5ZuUXy-23" edge="1">
                    <mxGeometry relative="1" as="geometry"/>
                </mxCell>
                <mxCell id="CVenbKpaEEO6EF5ZuUXy-22" value="Click 'Catch' button" style="rounded=1;whiteSpace=wrap;html=1;fontSize=12;glass=0;strokeWidth=1;shadow=0;" parent="WIyWlLk6GJQsqaUBKTNV-1" vertex="1">
                    <mxGeometry x="380" y="695" width="140" height="40" as="geometry"/>
                </mxCell>
                <mxCell id="CVenbKpaEEO6EF5ZuUXy-26" style="edgeStyle=orthogonalEdgeStyle;rounded=0;orthogonalLoop=1;jettySize=auto;html=1;entryX=0.5;entryY=1;entryDx=0;entryDy=0;fontSize=14;" parent="WIyWlLk6GJQsqaUBKTNV-1" source="CVenbKpaEEO6EF5ZuUXy-23" target="CVenbKpaEEO6EF5ZuUXy-25" edge="1">
                    <mxGeometry relative="1" as="geometry"/>
                </mxCell>
                <mxCell id="CVenbKpaEEO6EF5ZuUXy-23" value="Find and click 'Trade' button" style="rounded=1;whiteSpace=wrap;html=1;fontSize=12;glass=0;strokeWidth=1;shadow=0;" parent="WIyWlLk6GJQsqaUBKTNV-1" vertex="1">
                    <mxGeometry x="365" y="580" width="170" height="40" as="geometry"/>
                </mxCell>
                <mxCell id="CVenbKpaEEO6EF5ZuUXy-27" style="edgeStyle=orthogonalEdgeStyle;rounded=0;orthogonalLoop=1;jettySize=auto;html=1;entryX=0.5;entryY=1;entryDx=0;entryDy=0;fontSize=14;" parent="WIyWlLk6GJQsqaUBKTNV-1" source="CVenbKpaEEO6EF5ZuUXy-25" target="CVenbKpaEEO6EF5ZuUXy-5" edge="1">
                    <mxGeometry relative="1" as="geometry"/>
                </mxCell>
                <mxCell id="CVenbKpaEEO6EF5ZuUXy-25" value="Find and click 'X' button" style="rounded=1;whiteSpace=wrap;html=1;fontSize=12;glass=0;strokeWidth=1;shadow=0;" parent="WIyWlLk6GJQsqaUBKTNV-1" vertex="1">
                    <mxGeometry x="380" y="460" width="140" height="40" as="geometry"/>
                </mxCell>
                <mxCell id="CVenbKpaEEO6EF5ZuUXy-29" value="Text" style="text;html=1;align=center;verticalAlign=middle;resizable=0;points=[];autosize=1;strokeColor=none;fillColor=none;fontSize=14;" parent="WIyWlLk6GJQsqaUBKTNV-1" vertex="1">
                    <mxGeometry x="200" y="770" width="40" height="20" as="geometry"/>
                </mxCell>
                <mxCell id="2" style="edgeStyle=none;html=1;entryX=0.5;entryY=0;entryDx=0;entryDy=0;" edge="1" parent="WIyWlLk6GJQsqaUBKTNV-1" source="1" target="WIyWlLk6GJQsqaUBKTNV-11">
                    <mxGeometry relative="1" as="geometry"/>
                </mxCell>
                <mxCell id="1" value="Find and click 'Start' button" style="rounded=1;whiteSpace=wrap;html=1;fontSize=12;glass=0;strokeWidth=1;shadow=0;" vertex="1" parent="WIyWlLk6GJQsqaUBKTNV-1">
                    <mxGeometry x="170" y="325" width="100" height="40" as="geometry"/>
                </mxCell>
            </root>
        </mxGraphModel>
    </diagram>
</mxfile>